<?xml version="1.0" encoding="UTF-8" standalone="no"?>
<svg
   xmlns:dc="http://purl.org/dc/elements/1.1/"
   xmlns:cc="http://creativecommons.org/ns#"
   xmlns:rdf="http://www.w3.org/1999/02/22-rdf-syntax-ns#"
   xmlns:svg="http://www.w3.org/2000/svg"
   xmlns="http://www.w3.org/2000/svg"
   xmlns:sodipodi="http://sodipodi.sourceforge.net/DTD/sodipodi-0.dtd"
   xmlns:inkscape="http://www.inkscape.org/namespaces/inkscape"
   inkscape:version="1.0rc1 (09960d6f05, 2020-04-09)"
   sodipodi:docname="myLogo.svg"
   id="svg8"
   version="1.1"
   viewBox="0 0 62.839039 63.766174"
   height="63.766174mm"
   width="62.839039mm">
  <defs
     id="defs2">
    <filter
       height="1.0000129"
       y="-6.4278024e-06"
       width="1.0000077"
       x="-3.8300605e-06"
       id="filter912"
       style="color-interpolation-filters:sRGB"
       inkscape:collect="always">
      <feGaussianBlur
         id="feGaussianBlur914"
         stdDeviation="0.00018839184"
         inkscape:collect="always" />
    </filter>
  </defs>
  <sodipodi:namedview
     fit-margin-bottom="0"
     fit-margin-right="0"
     fit-margin-left="0"
     fit-margin-top="0"
     inkscape:window-maximized="1"
     inkscape:window-y="-8"
     inkscape:window-x="-8"
     inkscape:window-height="1017"
     inkscape:window-width="1920"
     inkscape:snap-global="false"
     inkscape:snap-nodes="false"
     showgrid="false"
     inkscape:document-rotation="0"
     inkscape:current-layer="layer1"
     inkscape:document-units="mm"
     inkscape:cy="166.07198"
     inkscape:cx="-688.5521"
     inkscape:zoom="0.4244223"
     inkscape:pageshadow="2"
     inkscape:pageopacity="0.0"
     borderopacity="1.0"
     bordercolor="#666666"
     pagecolor="#ffffff"
     id="base" />
  <metadata
     id="metadata5">
    <rdf:RDF>
      <cc:Work
         rdf:about="">
        <dc:format>image/svg+xml</dc:format>
        <dc:type
           rdf:resource="http://purl.org/dc/dcmitype/StillImage" />
        <dc:title></dc:title>
      </cc:Work>
    </rdf:RDF>
  </metadata>
  <g
     transform="translate(-61.000844,-161.12243)"
     style="opacity:0.999;filter:url(#filter912)"
     id="layer1"
     inkscape:groupmode="layer"
     inkscape:label="Layer 1">
    <g
       transform="translate(-58.124766,-72.389633)"
       id="g1482">
      <path
         id="path1079"
         style="fill:#000000;stroke-width:1.95194;stroke-miterlimit:4;stroke-dasharray:none"
         d="m 124.31294,233.51211 a 1.85,1.85 0 0 0 -1.5849,0.94361 1.85,1.85 0 0 0 0.70694,2.51975 c 0,0 5.5e-4,-0.0138 0.32244,0.25373 0.32192,0.26755 0.85506,0.75601 1.59166,1.57044 1.31701,1.45617 3.28758,3.97013 5.86216,8.11579 a 31.41927,24.332218 0 0 0 -12.08453,19.1797 31.41927,24.332218 0 0 0 0.0873,1.81436 v 14.03688 a 31.419334,14.268675 0 0 0 -0.0884,1.06297 31.419334,14.268675 0 0 0 31.41977,14.2689 31.419334,14.268675 0 0 0 31.41927,-14.2689 31.419334,14.268675 0 0 0 -0.0429,-0.74208 v -14.90812 a 31.41927,24.332218 0 0 0 0.0429,-1.26401 31.41927,24.332218 0 0 0 -12.17392,-19.23345 c 2.55881,-4.11476 4.51754,-6.61194 5.82911,-8.06204 0.7366,-0.81443 1.26974,-1.30289 1.59163,-1.57044 0.32186,-0.26754 0.32451,-0.25373 0.32451,-0.25373 a 1.85,1.85 0 0 0 0.70488,-2.51975 1.85,1.85 0 0 0 -1.59732,-0.94309 1.85,1.85 0 0 0 -0.92035,0.23823 c 0,0 -0.40265,0.23828 -0.87696,0.63251 -0.4743,0.39424 -1.13062,1.00522 -1.97041,1.93374 -1.52127,1.68197 -3.64911,4.42543 -6.36654,8.82065 a 31.41927,24.332218 0 0 0 -15.9639,-3.37499 31.41927,24.332218 0 0 0 -0.13073,0 31.41927,24.332218 0 0 0 -15.9272,3.41788 c -2.73013,-4.41979 -4.86889,-7.17624 -6.39495,-8.86354 -0.83982,-0.92852 -1.49611,-1.5395 -1.97043,-1.93374 -0.47429,-0.39423 -0.8754,-0.63251 -0.8754,-0.63251 a 1.85,1.85 0 0 0 -0.87487,-0.23823 1.85,1.85 0 0 0 -0.0584,-5.2e-4 z m 14.13867,29.41836 h 24.18768 c 5.99673,0 10.82466,4.82793 10.82466,10.82467 0,5.9967 -4.82793,10.82413 -10.82466,10.82413 h -24.18768 c -5.99672,0 -10.82466,-4.82743 -10.82466,-10.82413 0,-5.99674 4.82794,-10.82467 10.82466,-10.82467 z"
         inkscape:connector-curvature="0" />
      <g
         aria-label="}"
         transform="matrix(0,-0.05425389,-0.06247097,0,149.92855,274.34193)"
         id="text1021-7"
         style="font-size:252.108px;line-height:1.25;font-family:sans-serif;letter-spacing:0px;word-spacing:0px;opacity:0.999;fill:#000000;stroke:#000000;stroke-width:6.87077;stroke-miterlimit:4;stroke-dasharray:none;stroke-opacity:1;filter:url(#filter912)">
        <path
           d="m 116.94112,124.40183 c -2.12276,4.00934 -7.50554,5.09874 -7.50554,5.09874 -14.033355,0 -24.455789,3.93919 -31.2673,11.81756 -6.811512,7.79631 -10.217268,18.62907 -10.217268,32.4983 v 18.34184 c 0,15.42849 -4.595719,27.20502 -13.787156,35.32959 -9.109371,8.20664 -21.009,12.30996 -35.698887,12.30996 H 2.7194619e-5 C 0.11380405,240.10273 -1.4509577,239.02076 -3.4717521,230.37353 -5.3332887,222.40779 0.57865707,219.08842 0.57865707,219.08842 H 14.612013 c 11.161031,0 17.219367,-0.0265 22.225418,-5.19664 5.088117,-5.17019 7.034331,-13.0374 7.342861,-24.52401 l 0.57863,-21.54244 c 0.306327,-11.40457 0.920743,-21.06189 7.239856,-28.77614 6.319113,-7.79631 9.563709,-13.53523 20.124292,-18.08439 2.314394,-0.99697 1.030211,-2.42166 0,-2.95439 -9.430014,-4.87628 -15.830384,-9.14732 -22.149497,-16.86156 -6.319113,-7.796309 -7.52917,-20.327995 -7.52917,-31.735226 V 47.871192 c 0,-11.489297 -3.701319,-17.2604 -8.789436,-22.430583 C 28.648916,20.270425 25.483729,19.54616 14.322698,19.54616 H 0.28934213 c 0,0 -4.77508233,-3.102032 -5.06301143,-11.4014153 C -4.9554088,2.9062125 2.7194619e-5,-2.2310019e-4 2.7194619e-5,-2.2310019e-4 H 18.464969 c 14.689887,0 26.589516,4.10332040019 35.698887,12.30996110019 9.191437,8.124574 13.787156,19.901103 13.787156,35.329588 v 18.341842 c 0,13.869223 3.405756,24.743022 10.217268,32.621397 6.811511,7.796315 17.233945,11.694465 31.2673,11.694465 0,0 5.17818,1.33611 7.30096,4.11189 2.12279,2.77577 2.32734,5.98357 0.20458,9.99291 z"
           style="fill:#000000;stroke:#000000;stroke-width:6.87077;stroke-miterlimit:4;stroke-dasharray:none;stroke-opacity:1"
           id="path1466"
           inkscape:connector-curvature="0"
           sodipodi:nodetypes="zscsscscscscsscsscsscscscscsscszz" />
      </g>
      <ellipse
         style="fill:#000000;stroke:none;stroke-width:1;stroke-linecap:round;stroke-miterlimit:1.4;stroke-dasharray:none"
         id="path1454"
         cx="160.60678"
         cy="273.95541"
         rx="5.6126599"
         ry="5.5458426" />
    </g>
  </g>
</svg>
