<?xml version="1.0" encoding="UTF-8" standalone="no"?>
<svg
   xmlns:dc="http://purl.org/dc/elements/1.1/"
   xmlns:cc="http://creativecommons.org/ns#"
   xmlns:rdf="http://www.w3.org/1999/02/22-rdf-syntax-ns#"
   xmlns:svg="http://www.w3.org/2000/svg"
   xmlns="http://www.w3.org/2000/svg"
   xmlns:sodipodi="http://sodipodi.sourceforge.net/DTD/sodipodi-0.dtd"
   xmlns:inkscape="http://www.inkscape.org/namespaces/inkscape"
   inkscape:version="0.92.4 (5da689c313, 2019-01-14)"
   sodipodi:docname="logo.svg"
   id="svg8"
   version="1.1"
   viewBox="0 0 62.839527 63.766991"
   height="63.766991mm"
   width="62.839527mm">
  <defs
     id="defs2">
    <filter
       height="1.0000129"
       y="-6.4278024e-06"
       width="1.0000077"
       x="-3.8300605e-06"
       id="filter912"
       style="color-interpolation-filters:sRGB"
       inkscape:collect="always">
      <feGaussianBlur
         id="feGaussianBlur914"
         stdDeviation="0.00018839184"
         inkscape:collect="always" />
    </filter>
    <filter
       inkscape:label="Invert"
       inkscape:collect="always"
       style="color-interpolation-filters:sRGB"
       id="filter912-4"
       x="-3.8300605e-06"
       width="1.0000077"
       y="-6.4278024e-06"
       height="1.0000129">
      <feGaussianBlur
         result="fbSourceGraphic"
         inkscape:collect="always"
         stdDeviation="0.00018839184"
         id="feGaussianBlur914-3" />
      <feColorMatrix
         id="feColorMatrix1542"
         values="0 0 0 -1 0 0 0 0 -1 0 0 0 0 -1 0 0 0 0 1 0"
         in="fbSourceGraphic"
         result="fbSourceGraphicAlpha" />
      <feColorMatrix
         in="fbSourceGraphic"
         result="fbSourceGraphic"
         values="1 0 0 0 0 0 1 0 0 0 0 0 1 0 0 -0.21 -0.72 -0.07 2 0 "
         id="feColorMatrix1544" />
      <feColorMatrix
         id="feColorMatrix1550"
         values="0 0 0 -1 0 0 0 0 -1 0 0 0 0 -1 0 0 0 0 1 0"
         in="fbSourceGraphic"
         result="fbSourceGraphicAlpha" />
      <feColorMatrix
         in="fbSourceGraphic"
         result="color1"
         values="180"
         type="hueRotate"
         id="feColorMatrix1552" />
      <feColorMatrix
         result="fbSourceGraphic"
         values="-1 0 0 0 1 0 -1 0 0 1 0 0 -1 0 1 -0.21 -0.72 -0.07 2 0 "
         id="feColorMatrix1554" />
      <feColorMatrix
         id="feColorMatrix1556"
         values="0 0 0 -1 0 0 0 0 -1 0 0 0 0 -1 0 0 0 0 1 0"
         in="fbSourceGraphic"
         result="fbSourceGraphicAlpha" />
      <feColorMatrix
         in="fbSourceGraphic"
         result="color1"
         values="180"
         type="hueRotate"
         id="feColorMatrix1558" />
      <feColorMatrix
         result="fbSourceGraphic"
         values="-1 0 0 0 1 0 -1 0 0 1 0 0 -1 0 1 -0.21 -0.72 -0.07 2 0 "
         id="feColorMatrix1560" />
      <feColorMatrix
         id="feColorMatrix1594"
         values="0 0 0 -1 0 0 0 0 -1 0 0 0 0 -1 0 0 0 0 1 0"
         in="fbSourceGraphic"
         result="fbSourceGraphicAlpha" />
      <feColorMatrix
         in="fbSourceGraphic"
         result="color1"
         values="180"
         type="hueRotate"
         id="feColorMatrix1596" />
      <feColorMatrix
         result="fbSourceGraphic"
         values="0 0 -1 0 1 0 -1 0 0 1 -1 0 0 0 1 -0.21 -0.72 -0.07 2 0 "
         id="feColorMatrix1598" />
      <feColorMatrix
         id="feColorMatrix1600"
         values="0 0 0 -1 0 0 0 0 -1 0 0 0 0 -1 0 0 0 0 1 0"
         in="fbSourceGraphic"
         result="fbSourceGraphicAlpha" />
      <feColorMatrix
         in="fbSourceGraphic"
         result="color1"
         values="180"
         type="hueRotate"
         id="feColorMatrix1602" />
      <feColorMatrix
         result="fbSourceGraphic"
         values="0 0 -1 0 1 0 -1 0 0 1 -1 0 0 0 1 -0.21 -0.72 -0.07 2 0 "
         id="feColorMatrix1604" />
      <feColorMatrix
         id="feColorMatrix1606"
         values="0 0 0 -1 0 0 0 0 -1 0 0 0 0 -1 0 0 0 0 1 0"
         in="fbSourceGraphic"
         result="fbSourceGraphicAlpha" />
      <feColorMatrix
         in="fbSourceGraphic"
         result="color1"
         values="180"
         type="hueRotate"
         id="feColorMatrix1608" />
      <feColorMatrix
         result="fbSourceGraphic"
         values="0 0 -1 0 1 0 -1 0 0 1 -1 0 0 0 1 -0.21 -0.72 -0.07 2 0 "
         id="feColorMatrix1610" />
      <feColorMatrix
         result="fbSourceGraphicAlpha"
         in="fbSourceGraphic"
         values="0 0 0 -1 0 0 0 0 -1 0 0 0 0 -1 0 0 0 0 1 0"
         id="feColorMatrix891" />
      <feColorMatrix
         id="feColorMatrix893"
         type="hueRotate"
         values="180"
         result="color1"
         in="fbSourceGraphic" />
      <feColorMatrix
         id="feColorMatrix895"
         values="0 0 -1 0 1 0 -1 0 0 1 -1 0 0 0 1 -0.21 -0.72 -0.07 2 0 "
         result="color2" />
    </filter>
  </defs>
  <sodipodi:namedview
     inkscape:window-maximized="1"
     inkscape:window-y="-8"
     inkscape:window-x="-8"
     inkscape:window-height="987"
     inkscape:window-width="1680"
     inkscape:snap-global="false"
     inkscape:snap-nodes="false"
     showgrid="false"
     inkscape:document-rotation="0"
     inkscape:current-layer="layer1"
     inkscape:document-units="mm"
     inkscape:cy="118.67199"
     inkscape:cx="123.85726"
     inkscape:zoom="2.4008951"
     inkscape:pageshadow="2"
     inkscape:pageopacity="0.0"
     borderopacity="1.0"
     bordercolor="#666666"
     pagecolor="#ffffff"
     id="base"
     fit-margin-top="0"
     fit-margin-left="0"
     fit-margin-right="0"
     fit-margin-bottom="0" />
  <metadata
     id="metadata5">
    <rdf:RDF>
      <cc:Work
         rdf:about="">
        <dc:format>image/svg+xml</dc:format>
        <dc:type
           rdf:resource="http://purl.org/dc/dcmitype/StillImage" />
        <dc:title></dc:title>
      </cc:Work>
    </rdf:RDF>
  </metadata>
  <g
     style="opacity:0.99900004;filter:url(#filter912)"
     id="layer1"
     inkscape:groupmode="layer"
     inkscape:label="Layer 1"
     transform="translate(-11.228386,-14.621728)">
    <g
       aria-label="}"
       transform="matrix(0,-0.05425389,-0.06247097,0,58.67207,104.38167)"
       id="text1021-7-0"
       style="font-size:252.10800171px;line-height:1.25;font-family:sans-serif;letter-spacing:0px;word-spacing:0px;opacity:0.99800098;fill:#000000;stroke:#000000;stroke-width:6.87076998;stroke-miterlimit:4;stroke-dasharray:none;stroke-opacity:1;filter:url(#filter912-4)" />
    <path
       inkscape:export-ydpi="323.44009"
       inkscape:export-xdpi="323.44009"
       id="path1454-3"
       style="opacity:0.99900004;fill:#000000;fill-opacity:1;stroke:none;stroke-width:1;stroke-linecap:round;stroke-miterlimit:1.39999998;stroke-dasharray:none;filter:url(#filter912-4)"
       transform="matrix(1.1666033,0,0,1.1615843,-27.337312,-64.029257)"
       d="m 74.962964,103.99516 a 5.6126599,5.5458426 0 0 1 -5.61266,5.54585 5.6126599,5.5458426 0 0 1 -5.61266,-5.54585 5.6126599,5.5458426 0 0 1 5.61266,-5.54584 5.6126599,5.5458426 0 0 1 5.61266,5.54584 M 52.800626,98.765323 c -0.214698,0.09915 -0.273035,0.35056 -0.273035,0.35056 0,0.655453 -0.210942,1.142247 -0.632824,1.460397 -0.417488,0.31814 -0.997577,0.47721 -1.740266,0.47721 h -0.982196 c -0.826187,0 -1.456814,0.21466 -1.89188,0.64396 -0.439461,0.42547 -0.659192,0.98126 -0.659192,1.66738 v 0.86244 c -0.01633,-0.005 0.04161,0.0678 0.504666,0.16215 0.426561,0.087 0.604311,-0.18918 0.604311,-0.18918 v -0.65545 c 0,-0.5213 0.0014,-0.80426 0.278278,-1.03808 0.27686,-0.23765 0.698145,-0.32855 1.313247,-0.34296 l 1.153586,-0.027 c 0.610708,-0.0143 1.127853,-0.043 1.540946,-0.33815 0.417489,-0.29514 0.724805,-0.44669 0.96841,-0.93994 0.05339,-0.1081 0.129678,-0.0481 0.158206,0 0.261122,0.44045 0.489834,0.73939 0.902927,1.03453 0.417488,0.29515 1.088553,0.35167 1.699404,0.35167 h 1.153585 c 0.615246,0 0.924285,0.17287 1.201146,0.41052 0.27686,0.23382 0.315644,0.38166 0.315644,0.90295 v 0.65545 c 0,0 0.166113,0.22303 0.61054,0.23648 0.280521,0.008 0.436159,-0.22296 0.436159,-0.22296 v -0.86244 c 0,-0.68612 -0.219731,-1.24191 -0.659192,-1.66738 -0.435067,-0.4293 -1.065693,-0.64396 -1.89188,-0.64396 H 55.92902 c -0.742689,0 -1.324975,-0.15907 -1.746858,-0.47721 -0.417488,-0.31815 -0.626232,-0.804944 -0.626232,-1.460397 0,0 -0.07155,-0.241857 -0.22019,-0.341005 -0.148641,-0.09915 -0.320416,-0.108703 -0.535114,-0.0096 z M 37.504846,67.710487 c -0.564556,0.0086 -1.081993,0.317973 -1.35856,0.812348 -0.429372,0.767045 -0.158009,1.738445 0.605982,2.169235 0,0 4.71e-4,-0.01188 0.276392,0.218435 0.275946,0.230332 0.732948,0.650844 1.364354,1.351981 1.128927,1.253607 2.818079,3.417858 5.024982,6.986828 -6.537522,3.969716 -10.358824,10.060819 -10.358732,16.511673 -4.8e-5,0.521199 0.02491,1.042219 0.07483,1.56197 v 12.084253 c -0.05019,0.3045 -0.07547,0.60975 -0.07578,0.9151 -2.35e-4,6.78431 12.058072,12.2841 26.932694,12.284 14.874455,-10e-6 26.9325,-5.49977 26.932265,-12.284 -1.08e-4,-0.21306 -0.01237,-0.42608 -0.03677,-0.63885 V 96.849165 c 0.02438,-0.362418 0.03664,-0.725266 0.03677,-1.088178 6e-5,-6.477341 -3.852562,-12.590359 -10.435355,-16.557946 2.193385,-3.542369 3.872388,-5.692174 4.996651,-6.940555 0.631406,-0.701137 1.088408,-1.121649 1.364329,-1.351981 0.275895,-0.230324 0.278166,-0.218435 0.278166,-0.218435 0.763345,-0.431404 1.033875,-1.402656 0.604216,-2.169235 -0.278576,-0.497485 -0.80092,-0.807219 -1.369206,-0.8119 -0.27627,-0.0018 -0.54822,0.06887 -0.788914,0.205091 0,0 -0.345147,0.205133 -0.751721,0.544523 -0.406565,0.339399 -0.969155,0.865387 -1.689014,1.664744 -1.304017,1.447996 -3.127979,3.809822 -5.457331,7.593637 -4.145606,-1.90216 -8.870865,-2.905461 -13.684086,-2.905506 -0.03736,-6e-5 -0.0747,-6e-5 -0.112061,0 -4.806939,0.01559 -9.520911,1.031554 -13.652627,2.94243 -2.340238,-3.804967 -4.173561,-6.177976 -5.481683,-7.630561 -0.719885,-0.799357 -1.28245,-1.325345 -1.689032,-1.664744 -0.406556,-0.33939 -0.750384,-0.544523 -0.750384,-0.544523 -0.229167,-0.129782 -0.486883,-0.200262 -0.749929,-0.205091 -0.01668,-4.14e-4 -0.03337,-5.63e-4 -0.05006,-4.48e-4 z m 12.119518,26.237177 h 20.733423 c 5.140334,0 9.278784,4.611889 9.278784,9.774446 0,5.16251 -4.13845,9.77397 -9.278784,9.77397 H 49.624364 c -5.140325,0 -9.278784,-4.61146 -9.278784,-9.77397 0,-5.162557 4.138459,-9.774446 9.278784,-9.774446 z"
       inkscape:connector-curvature="0" />
  </g>
</svg>
